<svg xmlns="http://www.w3.org/2000/svg" viewBox="0 0 512 512">
  <!-- Background -->
  <rect width="512" height="512" fill="#22C9C9" style="display:none;"/>
  
  <!-- Pink Llama -->
  <path d="M256 90c-40 0-75 20-100 45-25 25-40 60-40 95 0 30 15 55 35 70 20 15 45 20 65 20 15 0 30-5 40-15 10-10 15-25 15-45 0-15-5-30-15-40-10-10-25-15-40-15-10 0-20 5-25 10-5 5-10 15-10 25 0 5 0 10 5 15 5 5 10 5 15 5 5 0 10 0 15-5 5-5 5-10 5-15" fill="#FF69B4" />
  
  <!-- Ears -->
  <path d="M170 130c-10-15-20-35-15-55 5-20 20-35 40-40 20-5 40 5 55 20 15 15 20 35 15 55-5 20-20 30-35 35-15 5-30 0-45-5" fill="#FF69B4" />
  <path d="M342 130c10-15 20-35 15-55-5-20-20-35-40-40-20-5-40 5-55 20-15 15-20 35-15 55 5 20 20 30 35 35 15 5 30 0 45-5" fill="#FF69B4" />
  
  <!-- Face Details -->
  <ellipse cx="205" cy="210" rx="10" ry="15" fill="#000" />
  <ellipse cx="307" cy="210" rx="10" ry="15" fill="#000" />
  
  <!-- Nose -->
  <path d="M256 235c-10 0-20 5-25 10-5 5-10 15-10 25 0 10 5 20 15 25 10 5 20 5 30 0 10-5 15-15 15-25 0-10-5-20-10-25-5-5-10-10-15-10" fill="#FFC0CB" />
  
  <!-- Mouth -->
  <path d="M240 275c5 10 15 15 25 15 10 0 20-5 25-15" fill="none" stroke="#000" stroke-width="5" />
  
  <!-- Sunglasses -->
  <path d="M175 190h160c10 0 20 10 20 20v10c0 10-10 20-20 20h-70c-5 0-10-5-10-10 0-5 5-10 10-10h30c5 0 10-5 10-10 0-5-5-10-10-10h-80c-5 0-10 5-10 10 0 5 5 10 10 10h30c5 0 10 5 10 10 0 5-5 10-10 10h-70c-10 0-20-10-20-20v-10c0-10 10-20 20-20z" fill="#000" />
  
  <!-- Outline -->
  <path d="M256 90c-40 0-75 20-100 45-25 25-40 60-40 95 0 30 15 55 35 70 20 15 45 20 65 20 15 0 30-5 40-15 10-10 15-25 15-45M170 130c-10-15-20-35-15-55 5-20 20-35 40-40 20-5 40 5 55 20 15 15 20 35 15 55-5 20-20 30-35 35-15 5-30 0-45-5M342 130c10-15 20-35 15-55-5-20-20-35-40-40-20-5-40 5-55 20-15 15-20 35-15 55 5 20 20 30 35 35 15 5 30 0 45-5" fill="none" stroke="#000" stroke-width="10" />
</svg>