<?xml version="1.0" encoding="UTF-8"?>
<svg xmlns="http://www.w3.org/2000/svg" width="100" height="100" viewBox="0 0 100 100">
  <circle cx="50" cy="50" r="45" fill="#22C9C9"/>
  <path d="M50 20 C35 25 25 40 30 60 C35 80 65 80 70 60 C75 40 65 25 50 20" fill="#FF69B4" stroke="#000" stroke-width="2"/>
  <path d="M40 65 C45 70 55 70 60 65" fill="none" stroke="#000" stroke-width="2"/>
  <path d="M30 40 C25 35 20 38 25 45" fill="#FF69B4" stroke="#000" stroke-width="2"/>
  <path d="M70 40 C75 35 80 38 75 45" fill="#FF69B4" stroke="#000" stroke-width="2"/>
  <path d="M45 55 C45 52 55 52 55 55" fill="#000"/>
  <rect x="30" y="45" width="40" height="15" rx="5" fill="#000"/>
</svg>