<svg width="64" height="64" viewBox="0 0 64 64" fill="none" xmlns="http://www.w3.org/2000/svg">
  <path d="M32 8C25.5 8 20 13.5 20 20C20 26.5 25.5 32 32 32C38.5 32 44 26.5 44 20C44 13.5 38.5 8 32 8ZM32 28C27.6 28 24 24.4 24 20C24 15.6 27.6 12 32 12C36.4 12 40 15.6 40 20C40 24.4 36.4 28 32 28Z" fill="#7C4DFF"/>
  <path d="M54 36H10C7.8 36 6 37.8 6 40V52C6 54.2 7.8 56 10 56H54C56.2 56 58 54.2 58 52V40C58 37.8 56.2 36 54 36ZM54 52H10V40H54V52Z" fill="#7C4DFF"/>
  <path d="M28 44H32V48H28V44Z" fill="#7C4DFF"/>
  <path d="M36 44H52V48H36V44Z" fill="#7C4DFF"/>
  <path d="M28 44H32V48H28V44Z" fill="#7C4DFF"/>
  <path d="M12 44H24V48H12V44Z" fill="#7C4DFF"/>
  <path d="M28 44H32V48H28V44Z" fill="#7C4DFF"/>
</svg>
